<svg xmlns="http://www.w3.org/2000/svg" viewBox="0 0 153.5 43.75"><title>callback</title><path d="M85.46,31.36" style="fill:#e2f5f7"/><g style="opacity:0.5"><polygon points="26.08 20.03 21.67 12.6 19.2 14.93 13.91 19.93 0 0 34.21 11.26 27.14 11.08 26.08 20.03" style="fill:#33c"/><polygon points="26.08 20.03 19.2 14.93 21.67 12.6 0 0 27.14 11.08 26.08 20.03" style="fill:#c33"/><polygon points="21.67 12.6 19.2 14.93 26.08 20.03 21.67 12.6" style="fill:#33c"/></g><path d="M39.38,13.13l1.28,0.24c0.83,0.17,2.08.22,3.65,0.4S47.8,14,50,14.08s4.69,0.17,7.4.2,5.65,0,8.76,0,6.38-.13,9.77-0.19l5.16-.2q2.62-.08,5.28-0.27l5.36-.34c1.8-.12,3.59-0.31,5.39-0.46s3.6-.27,5.39-0.48l5.34-.61,2.64-.3,2.6-.38,5.1-.77c1.68-.22,3.31-0.58,4.91-0.87l4.7-.87c3-.62,5.88-1.36,8.52-2,1.33-.28,2.55-0.71,3.74-1l3.37-1c1-.33,2.06-0.56,2.95-0.92l2.45-.92L153.5,1l-4.6,1.91-2.43,1c-0.88.39-1.88,0.64-2.92,1-2.11.66-4.45,1.54-7.08,2.23S131,8.61,128,9.29l-4.7,1c-1.6.33-3.24,0.68-4.92,0.92l-5.11.8-2.61.4-2.65.32-5.35.65c-1.79.22-3.6,0.34-5.41,0.52s-3.61.32-5.41,0.43l-5.38.31q-2.67.17-5.3,0.24L76,15c-3.4.06-6.68,0.09-9.79,0.05S60.1,15,57.38,14.84c-1.36-.06-2.66-0.08-3.9-0.16L50,14.45c-2.2-.13-4.12-0.36-5.7-0.49s-2.82-.34-3.64-0.54Z" style="fill:#fff"/><path d="M27.75,20.69l4,2.33,2.15,1.12c0.78,0.41,1.62.86,2.55,1.26l3,1.33L42.71,28c1.15,0.48,2.4.86,3.68,1.29l2,0.65c0.66,0.21,1.35.38,2,.58,1.39,0.36,2.79.82,4.26,1.13l4.48,1c3.07,0.59,6.24,1.24,9.49,1.69s6.56,0.88,9.88,1.29,6.64,0.72,9.92.93L93.28,37,98,37.28c3.13,0.19,6.15.33,9,.45s5.58,0.24,8.09.3L122,38.26l5.28,0.12,4.6,0.12-4.6.07c-2.93,0-7.11.11-12.13,0-2.51,0-5.23-.05-8.1-0.14l-4.43-.11c-1.51,0-3.05-.14-4.62-0.21l-4.77-.24-4.89-.34c-3.29-.19-6.62-0.57-10-0.87s-6.66-.79-9.91-1.36S62,34.18,58.94,33.57l-4.5-1.1c-1.47-.35-2.88-0.83-4.26-1.23-0.69-.21-1.38-0.4-2-0.62l-2-.69c-1.28-.46-2.52-0.86-3.68-1.37s-2.28-.93-3.33-1.39l-2.92-1.44c-0.93-.43-1.76-0.91-2.52-1.35l-2.11-1.19c-1.25-.76-2.2-1.42-2.86-1.84Z" style="fill:#fff"/><path d="M16.49,23.18l0.57,1.41c0.16,0.46.44,1,.72,1.58s0.68,1.25,1,2,0.86,1.47,1.44,2.22c0.28,0.38.55,0.77,0.86,1.15l1,1.15c0.32,0.4.7,0.75,1.06,1.14a14.55,14.55,0,0,0,1.13,1.11A29.63,29.63,0,0,0,26.75,37a30.28,30.28,0,0,0,2.7,1.79c0.47,0.26.91,0.55,1.38,0.8l1.39,0.7c0.91,0.46,1.84.8,2.7,1.19l2.5,0.88c0.79,0.21,1.52.43,2.16,0.62s1.22,0.29,1.69.41l1.48,0.35-1.51-.16c-0.48-.07-1.07-0.1-1.73-0.24s-1.42-.26-2.23-0.44l-2.6-.74c-0.89-.34-1.87-0.62-2.82-1.08A25.83,25.83,0,0,1,29,39.63a30.78,30.78,0,0,1-2.81-1.82,30.61,30.61,0,0,1-2.55-2.18L23,35.07l-0.55-.61c-0.35-.41-0.74-0.78-1.05-1.21L20.47,32c-0.29-.41-0.55-0.84-0.81-1.24-0.54-.8-0.92-1.63-1.33-2.36s-0.68-1.45-.89-2.1-0.44-1.19-.56-1.66Z" style="fill:#fff"/></svg>