<svg xmlns="http://www.w3.org/2000/svg" viewBox="0 0 175.28 201.27"><title>idea</title><path d="M183.06,163.25a47.22,47.22,0,0,1,14.26-21.8,57.28,57.28,0,0,0,20.55-44,57.9,57.9,0,0,0-60.8-57.87C127.29,40.81,103,66,102.13,95.74a57.44,57.44,0,0,0,20.55,45.71,45,45,0,0,1,14.68,21.8h45.71Z" transform="translate(-72.36 -9.36)" style="fill:#339"/><path d="M147,201.83a14,14,0,0,0,26,0H147Z" transform="translate(-72.36 -9.36)" style="fill:#344a5e"/><path d="M175.51,202.25H144.9a7.52,7.52,0,0,1-7.55-7.55V162.83h45.71V194.7A7.52,7.52,0,0,1,175.51,202.25Z" transform="translate(-72.36 -9.36)" style="fill:#344a5e"/><path d="M182.64,178.77H137.36a4.65,4.65,0,0,1-4.61-4.61h0a4.65,4.65,0,0,1,4.61-4.61h45.29a4.65,4.65,0,0,1,4.61,4.61h0A4.65,4.65,0,0,1,182.64,178.77Z" transform="translate(-72.36 -9.36)" style="fill:#415a6b"/><path d="M182.64,193.44H137.36a4.65,4.65,0,0,1-4.61-4.61h0a4.65,4.65,0,0,1,4.61-4.61h45.29a4.65,4.65,0,0,1,4.61,4.61h0A4.65,4.65,0,0,1,182.64,193.44Z" transform="translate(-72.36 -9.36)" style="fill:#415a6b"/><path d="M160,9.36a4.2,4.2,0,0,0-4.19,4.19V27.81A4.2,4.2,0,0,0,160,32a4,4,0,0,0,4.19-4.19V13.56A4.2,4.2,0,0,0,160,9.36Z" transform="translate(-72.36 -9.36)" style="fill:#339"/><path d="M103.81,34.94a4.15,4.15,0,0,0-5.87,5.87L108,50.88A4.15,4.15,0,0,0,113.87,45Z" transform="translate(-72.36 -9.36)" style="fill:#339"/><path d="M90.81,92.81H76.56A4.2,4.2,0,0,0,72.36,97h0a4.2,4.2,0,0,0,4.19,4.19H90.81A4.2,4.2,0,0,0,95,97h0A4.51,4.51,0,0,0,90.81,92.81Z" transform="translate(-72.36 -9.36)" style="fill:#339"/><path d="M108,143.13L97.94,153.19a4.15,4.15,0,0,0,5.87,5.87L113.87,149A4.15,4.15,0,0,0,108,143.13Z" transform="translate(-72.36 -9.36)" style="fill:#339"/><path d="M212,143.13a4.15,4.15,0,0,0-5.87,5.87l10.06,10.06a4.15,4.15,0,1,0,5.87-5.87Z" transform="translate(-72.36 -9.36)" style="fill:#339"/><path d="M243.44,92.81H229.19A4.2,4.2,0,0,0,225,97h0a4.2,4.2,0,0,0,4.19,4.19h14.26A4.2,4.2,0,0,0,247.64,97h0A4.2,4.2,0,0,0,243.44,92.81Z" transform="translate(-72.36 -9.36)" style="fill:#339"/><path d="M216.19,34.94L206.13,45A4.15,4.15,0,1,0,212,50.88l10.06-10.06A4.15,4.15,0,1,0,216.19,34.94Z" transform="translate(-72.36 -9.36)" style="fill:#339"/><path d="M202.7,119.72l-10.83-6.26L201,108a3,3,0,0,0,1.09-4.13,2.93,2.93,0,0,0-4.08-1L185.83,110,166.46,98.77l19.37-11.16L198,94.74a2.38,2.38,0,0,0,1.42.44,3.3,3.3,0,0,0,2.67-1.42A3,3,0,0,0,201,89.63l-9.14-5.44,10.83-6.26a3.06,3.06,0,0,0,1.09-4.13,3,3,0,0,0-4.14-1.09L188.77,79l-0.16-10.89a3,3,0,0,0-3-3,3.05,3.05,0,0,0-3,3l0.11,14.37L163.47,93.66V71l12.13-6.92A3.07,3.07,0,0,0,176.8,60a2.92,2.92,0,0,0-4.08-1.09l-9.25,5.22V51.76a3,3,0,0,0-3-3,3,3,0,0,0-3,3V64.22l-9.58-5.34a2.89,2.89,0,0,0-4,1.09A3,3,0,0,0,145,64.11l12.46,7V93.54l-19.7-11.36,0.11-14a2.91,2.91,0,0,0-2.94-3h-0.11a3.08,3.08,0,0,0-3,3L131.69,78.7,121.08,72.6A2.93,2.93,0,0,0,117,73.68a3,3,0,0,0,1.09,4.14L128.81,84l-9.36,5.61a2.91,2.91,0,0,0-1,4.13A2.8,2.8,0,0,0,121,95.18a2.94,2.94,0,0,0,1.58-.44l12.24-7.23,19.64,11.26-19.64,11.38-12.24-7.24a3,3,0,0,0-4.13,1,3.06,3.06,0,0,0,1,4.13l9.36,5.55-10.72,6.26A3,3,0,0,0,117,124a2.78,2.78,0,0,0,2.56,1.52,5.45,5.45,0,0,0,1.52-.44L131.69,119l0.11,10.56a3,3,0,0,0,3,3h0.11a3,3,0,0,0,2.94-3.1l-0.11-14,19.7-11.26v22.3l-12.46,7a3,3,0,0,0-1.14,4.13,2.77,2.77,0,0,0,2.56,1.53,2.91,2.91,0,0,0,1.47-.34l9.58-5.43V146a3,3,0,0,0,3,3,3,3,0,0,0,3-3V133.53l9.25,5.22a3.1,3.1,0,0,0,4.08-1.2,3,3,0,0,0-1.2-4.13l-12.13-6.8V104l19.26,11.16-0.11,14.25a3,3,0,0,0,3,3.1,3,3,0,0,0,3-3l0.16-10.95,10.88,6.37a3.19,3.19,0,0,0,1.58.33,2.8,2.8,0,0,0,2.56-1.42A3,3,0,0,0,202.7,119.72Z" transform="translate(-72.36 -9.36)" style="fill:#fff"/></svg>