<svg xmlns="http://www.w3.org/2000/svg" viewBox="0 0 528 280"><title>logo</title><polygon points="328 0 176 0 88 88 192 88 0 280 32 280 224 88 240 88 48 280 56 280 80 280 272 88 280 96 96 280 128.03 280 224.03 184.01 224.04 184.02 296 112.13 348 164 420 92 328 0" style="fill:#c1272d"/><polygon points="232 192 144 280 176 280 248 208 232 192" style="fill:#c1272d"/><polygon points="256 216 192 280 224 280 272 232 256 216" style="fill:#c1272d"/><path d="M240,280c-0.33-.33,32,0,32,0l24-24-16-16Z" style="fill:#c1272d"/><rect x="394.89" y="42.69" width="62.23" height="22.63" transform="translate(86.59 317.04) rotate(-45)" style="fill:#33c"/><rect x="370.89" y="18.69" width="62.23" height="22.63" transform="translate(96.53 293.04) rotate(-45)" style="fill:#33c"/><polygon points="400 0 376 0 352 24 364 36 400 0" style="fill:#33c"/><path d="M528,112L512,96l-96,96H400L504,88,488,72,372,188l-8-8L480,64,464,48,420,92l-72,72-52-52-72,72,96,96H440l88-88H448Z" style="fill:#33c"/></svg>