<?xml version="1.0" encoding="utf-8"?>
<!-- Generator: Adobe Illustrator 19.2.1, SVG Export Plug-In . SVG Version: 6.00 Build 0)  -->
<svg version="1.1" id="Layer_1" xmlns="http://www.w3.org/2000/svg" xmlns:xlink="http://www.w3.org/1999/xlink" x="0px" y="0px"
	 viewBox="0 0 512 512" style="enable-background:new 0 0 512 512;" xml:space="preserve">
<style type="text/css">
	.st0{fill:#9A9ACC;}
</style>
<path class="st0" d="M256,48c115.2,0,208,92.8,208,208s-92.8,208-208,208S48,371.2,48,256S140.8,48,256,48z M256,0
	C115.2,0,0,115.2,0,256s115.2,256,256,256s256-115.2,256-256S396.8,0,256,0L256,0z"/>
<path class="st0" d="M316.8,329.6c-16,12.8-38.4,22.4-60.8,22.4c-54.4,0-96-41.6-96-96s41.6-96,96-96c25.6,0,51.2,9.6,67.2,28.8
	l35.2-35.2C332.8,128,294.4,112,256,112c-80,0-144,64-144,144s64,144,144,144c35.2,0,64-12.8,89.6-32L316.8,329.6L316.8,329.6z"/>
</svg>
